<svg width="190" height="48" viewBox="0 0 190 48" fill="none" xmlns="http://www.w3.org/2000/svg">
<path fillRule="evenodd" clipRule="evenodd" d="M105.261 0.000111744C105.623 0.000111744 105.826 0.238593 105.871 0.540011L105.88 0.672531L101.194 38.1671C100.235 45.9665 95.4419 47.9126 89.5975 47.9971L89.1881 48C87.2466 48 86.2276 47.9545 85.5517 47.8962L83.9683 47.7071C83.6592 47.6526 83.399 47.5321 83.3388 47.116L83.3256 46.9189V46.6621L83.6766 43.6755C83.7779 42.7994 84.13 42.5159 84.9024 42.5159C85.6234 42.4653 86.6031 42.462 87.6854 42.4106L88.7683 42.3402C90.7187 42.1759 91.9564 41.7142 92.6034 38.7591L92.6845 38.3593L97.2736 0.730638C97.3177 0.377447 97.4399 0.158691 97.7657 0.0715554L97.9462 0.0389428L105.261 0.000111744ZM122.395 9.5721C127.083 9.5721 130.021 10.6043 131.771 12.352C133.525 14.105 134.041 16.5237 134.041 19.5095C134.041 22.7551 133.473 27.2355 132.34 30.1676C130.637 34.8011 127.133 37.9453 118.886 37.9453C114.246 37.9453 111.359 36.9653 109.607 35.2662C107.805 33.4649 107.237 30.9417 107.237 27.9543C107.237 24.6589 107.906 19.769 109.143 16.7818C110.949 12.4576 114.506 9.5721 122.395 9.5721ZM78.0328 9.57204C82.7234 9.57204 85.6616 10.6023 87.4138 12.3539C89.1659 14.1049 89.6822 16.5239 89.6822 19.5108C89.6822 22.7528 89.1133 27.2326 87.9823 30.1676C86.2805 34.801 82.7746 37.9424 74.5288 37.9424C69.8883 37.9424 66.9999 36.9652 65.2477 35.2662C63.4458 33.4632 62.8756 30.94 62.8756 27.9545C62.8756 24.6589 63.5485 19.7673 64.7843 16.7798C66.5876 12.4576 70.147 9.57204 78.0328 9.57204ZM180.824 9.62434C184.947 9.62434 188.114 10.4985 189.094 10.8074C189.395 10.894 189.546 11.0866 189.588 11.3279L189.6 11.4782V11.7343L188.525 15.1336C188.422 15.4942 188.068 15.6459 187.708 15.6459C187.672 15.6459 187.636 15.624 187.585 15.6093L187.255 15.5608C186.362 15.4101 183.746 14.8738 181.302 14.8738C180.013 14.8738 178.449 15.0288 177.47 15.8024C176.883 16.2971 176.547 16.9504 176.472 17.6913L176.456 18.0685C176.456 20.2288 178.864 20.3325 181.233 20.7982C183.295 21.1063 185.392 21.6201 186.732 22.9593C187.763 23.9371 188.382 25.4297 188.382 27.697C188.382 30.2182 187.608 32.7928 185.805 34.6977C183.536 37.0678 179.928 37.9422 175.908 37.9422C171.474 37.9422 167.453 36.8614 166.579 36.4482L166.418 36.3624C166.271 36.2835 166.112 36.1635 166.112 35.8316C166.112 35.7283 166.112 35.6484 166.127 35.5454L166.164 35.3679L167.199 32.0723C167.351 31.6108 167.556 31.4549 167.866 31.4549C167.968 31.4549 168.022 31.4549 168.125 31.506L169.33 31.8084C170.797 32.165 173.264 32.6905 175.545 32.6905C176.989 32.6905 178.33 32.4335 179.206 31.6605C179.98 31.0426 180.289 30.1676 180.289 29.291C180.289 28.2113 179.928 27.6444 179.207 27.2852C178.691 27.0272 178.045 26.8739 177.286 26.7323L175.012 26.3181C173.33 25.989 171.422 25.4888 170.086 24.1935C169.106 23.1638 168.491 21.7754 168.491 19.6106C168.491 17.345 169.114 14.9266 170.555 13.177C173.134 10.0858 177.527 9.62434 180.824 9.62434ZM148.25 0C148.655 0 148.962 0.223724 149.033 0.624758L149.048 0.80735V0.95988L148.183 7.51255L147.795 10.5263L148.333 10.3772C149.366 10.1089 151.752 9.57227 154.306 9.57227C157.706 9.57227 160.179 10.2433 161.778 11.7881C163.323 13.2791 164.048 15.6472 164.048 19.2001C164.048 22.4441 163.531 26.1523 162.605 29.2931C160.848 35.1108 157.294 37.941 149.046 37.941C145.023 37.941 141.52 37.373 139.562 36.7051C137.551 36.036 137.038 35.1588 137.038 33.7659C137.038 33.3203 137.084 32.8258 137.16 32.2561L137.295 31.3419L140.93 1.28338C140.975 0.641969 141.224 0.229896 141.786 0.0726665L142.012 0.0257011L148.25 0ZM56.8927 0.0944236C60.6028 0.0944236 62.924 0.766843 63.6948 0.973569C64.0572 1.07693 64.1585 1.33869 64.1585 1.64683C64.1585 1.68203 64.1585 1.74429 64.1436 1.81219L64.1084 1.91557L63.1301 5.43606C63.0412 5.83403 62.9136 6.07129 62.6192 6.13096L62.4575 6.14592H62.2511C61.6328 5.86656 60.0342 5.7333 58.6445 5.7333C56.3423 5.7333 55.388 6.2436 55.036 8.15016L54.9853 8.46293L54.5731 11.7331H61.1162C61.5259 11.7331 61.7353 11.9669 61.7813 12.3004L61.7911 12.4491V12.553L61.3003 16.611C61.2555 17.0143 60.9927 17.2549 60.6171 17.3087L60.4495 17.3203H53.9005L51.1385 36.7135C51.0472 37.2449 50.6597 37.401 50.25 37.4292L50.0959 37.4342H43.9991C43.6411 37.4342 43.3302 37.4333 43.2537 37.048L43.2364 36.8847L43.3818 35.8489L43.4257 35.4787H43.433L45.9632 17.4362L47.0469 8.28078C47.7167 2.82293 50.8596 0.0944236 56.8927 0.0944236ZM31.0529 9.79668C34.7664 9.79668 37.4714 10.3115 39.0686 11.8544C39.9171 12.7523 40.4433 13.9947 40.5251 15.6635L40.5363 16.18C40.5363 16.7467 40.5039 17.2968 40.4587 17.84L40.3044 19.4592L38.1669 36.6946C38.1219 37.0996 37.8398 37.3622 37.4596 37.4215L37.291 37.4343H31.0021C30.5963 37.4343 30.2777 37.2848 30.2044 36.9725L30.1885 36.8287V36.7264L32.2351 19.9919C32.3131 19.4505 32.3814 18.9088 32.4107 18.3901L32.4258 17.828C32.4258 17.0039 32.3064 16.3806 31.9465 15.9702C31.4302 15.3531 30.6421 15.0911 29.4035 15.0911C27.8714 15.0911 26.2017 15.3446 25.1519 15.5378L24.0945 15.7526L21.519 36.6946C21.4715 37.0996 21.19 37.3622 20.7745 37.4215L20.5886 37.4343H14.3016C13.8968 37.4343 13.5165 37.2848 13.4277 36.9725L13.4083 36.8287V36.7264L16.2517 14.2754C16.5096 12.3196 17.9093 11.7002 21.0014 10.9812C23.6823 10.3635 27.8091 9.79668 31.0529 9.79668ZM4.91379 0.279472H12.4084C12.7145 0.279472 12.8197 0.394203 12.8435 0.653749L12.8491 0.89965L8.49356 36.6946C8.44878 37.0996 8.17596 37.3622 7.79613 37.4215L7.62714 37.4343H0.773565C0.412862 37.4343 0.0911285 37.2801 0.0163312 36.9666L0 36.8225L4.31334 0.90412C4.3569 0.542838 4.42658 0.335553 4.75602 0.289377L4.91379 0.279472ZM151.881 14.9793C150.36 14.9793 148.506 15.3421 147.636 15.533L147.139 15.6475L145.128 32.1761L145.725 32.2939C146.417 32.4156 147.646 32.5882 149.046 32.5882C152.759 32.5882 154.306 31.5582 155.284 26.102C155.696 23.8855 156.007 21.5171 156.007 19.2526C156.007 17.7603 155.799 16.7314 155.337 16.0624C154.666 15.1852 153.581 14.9793 151.881 14.9793ZM121.722 14.9283C118.098 14.9283 116.912 16.5023 116.232 19.8845L116.156 20.2828C115.689 22.8068 115.28 25.6372 115.28 28.2113C115.28 29.8078 115.485 30.9417 116.256 31.6605C116.928 32.2801 117.959 32.588 119.556 32.588C123.425 32.588 124.506 30.7856 125.175 26.924C125.638 24.4539 126 21.8271 126 19.3558C126 17.8099 125.794 16.7315 125.124 16.0083C124.454 15.2895 123.425 14.9283 121.722 14.9283ZM77.3619 14.9285C73.5989 14.9285 72.4652 16.6281 71.794 20.283C71.3291 22.8067 70.9194 25.6355 70.9194 28.2115C70.9194 29.8078 71.1269 30.94 71.898 31.6605C72.5661 32.2784 73.5989 32.5879 75.1986 32.5879C78.9246 32.5879 80.064 30.9135 80.7427 27.3315L80.8164 26.9256C81.2798 24.4524 81.6411 21.827 81.6411 19.3558C81.6411 17.8098 81.4322 16.7301 80.7666 16.0082C80.0951 15.2875 79.0626 14.9285 77.3619 14.9285Z" fill="#167DB7"/>
</svg>
